#!OML:ASF H:\Not Pregnant\Project 1\Capture day 1\Session 1\non-pregnant.ASF
:FULLY-SPECIFIED
:DEGREES
546
root 7.82033 15.6832 39.1923 110.895 -83.0363 -98.4612
lowerback -11.4231 1.88159 5.47757
upperback -8.7032 1.57825 1.13137
thorax -2.60774 0.374839 -1.73941
lowerneck 19.084 -8.04601 -32.4263
upperneck -4.39304 -18.9332 40.084
head 3.34143 -11.9273 20.6067
rclavicle 4.42296e-015 -1.19271e-015
rhumerus -39.6976 -7.22694 -81.3294
rradius 23.7015
rwrist 31.6088
rhand -11.7724 0.707017
rfingers 7.12502
rthumb 14.2764 -28.7822
lclavicle 4.42296e-015 -1.19271e-015
lhumerus -53.4726 -36.2601 119.393
lradius 40.4459
lwrist 27.4775
lhand -2.71289 -11.7288
lfingers 7.12502
lthumb 22.9895 16.9203
rfemur -26.3462 -10.3819 27.0942
rtibia 29.1527
rfoot -13.7302 35.008
rtoes 7.44371
lfemur -16.4616 8.12846 -16.8959
ltibia 28.4356
lfoot -18.7681 17.6304
ltoes -25.5521
547
root 7.82054 15.6831 39.1953 111.258 -83.0436 -98.8116
lowerback -11.4636 1.87606 5.44565
upperback -8.71349 1.56899 1.17309
thorax -2.599 0.371799 -1.67821
lowerneck 19.0512 -8.03754 -32.4471
upperneck -4.38487 -18.9122 40.0607
head 3.33926 -11.9103 20.5982
rclavicle 1.88845e-015 -7.55382e-015
rhumerus -39.3977 -6.17585 -81.6247
rradius 23.8226
rwrist 31.5287
rhand -12.3921 0.56199
rfingers 7.12502
rthumb 13.6792 -28.9685
lclavicle 1.88845e-015 -7.55382e-015
lhumerus -53.2925 -36.0873 119.206
lradius 40.0996
lwrist 27.4794
lhand -3.93628 -11.9651
lfingers 7.12502
lthumb 21.8152 16.8253
rfemur -26.3734 -10.3645 27.068
rtibia 29.1663
rfoot -13.7308 35.0383
rtoes 7.45223
lfemur -16.4664 8.16174 -16.9286
ltibia 28.4231
lfoot -18.7885 17.6126
ltoes -25.4578
548
root 7.82145 15.6827 39.1986 111.735 -83.0568 -99.2857
lowerback -11.479 1.87333 5.4065
upperback -8.72318 1.56634 1.21261
thorax -2.60274 0.372286 -1.61515
lowerneck 19.0182 -8.03103 -32.4641
upperneck -4.37957 -18.892 40.0368
head 3.33619 -11.8936 20.5881
rclavicle -2.5345e-015 1.53064e-014
rhumerus -39.1134 -5.08958 -81.9292
rradius 23.971
rwrist 31.0752
rhand -12.9298 0.375514
rfingers 7.12502
rthumb 13.1608 -29.1891
lclavicle -2.5345e-015 1.53064e-014
lhumerus -52.9787 -35.7426 118.848
lradius 39.6691
lwrist 27.405
lhand -5.03042 -12.2798
lfingers 7.12502
lthumb 20.7642 16.6293
rfemur -26.3952 -10.3275 27.0274
rtibia 29.1879
rfoot -13.7497 35.0523
rtoes 7.42601
lfemur -16.4566 8.18933 -16.9724
ltibia 28.4059
lfoot -18.8067 17.6098
ltoes -25.3582
549
root 7.82266 15.6822 39.2025 112.302 -83.0779 -99.8598
lowerback -11.4735 1.87495 5.3705
upperback -8.73425 1.5711 1.24053
thorax -2.61848 0.375906 -1.56565
lowerneck 18.9901 -8.02786 -32.461
upperneck -4.37983 -18.8716 40.0099
head 3.32764 -11.8771 20.5723
rclavicle -2.03257e-014 -3.57812e-015
rhumerus -38.8488 -4.03549 -82.2315
rradius 24.1371
rwrist 30.3285
rhand -13.3867 0.15414
rfingers 7.12502
rthumb 12.7204 -29.4384
lclavicle -2.03257e-014 -3.57812e-015
lhumerus -52.5548 -35.2388 118.327
lradius 39.1682
lwrist 27.2593
lhand -6.00146 -12.6476
lfingers 7.12502
lthumb 19.831 16.3607
rfemur -26.4111 -10.2539 26.965
rtibia 29.2189
rfoot -13.7786 35.0341
rtoes 7.3852
lfemur -16.4305 8.19896 -17.0291
ltibia 28.3803
lfoot -18.8221 17.6276
ltoes -25.24
550
root 7.82399 15.6815 39.2071 112.955 -83.1076 -100.525
lowerback -11.4527 1.88208 5.3375
upperback -8.74685 1.58428 1.25908
thorax -2.64325 0.383253 -1.52711
lowerneck 18.964 -8.02562 -32.4537
upperneck -4.38195 -18.8526 39.9871
head 3.31906 -11.862 20.5579
rclavicle -4.47266e-015 -1.09332e-014
rhumerus -38.5937 -3.17453 -82.4532
rradius 24.283
rwrist 29.5144
rhand -13.7528 -0.0338621
rfingers 7.12502
rthumb 12.3674 -29.648
lclavicle -4.47266e-015 -1.09332e-014
lhumerus -52.0294 -34.5735 117.655
lradius 38.6043
lwrist 27.0359
lhand -6.85271 -13.0446
lfingers 7.12502
lthumb 19.0125 16.0462
rfemur -26.4246 -10.1546 26.8828
rtibia 29.2586
rfoot -13.8252 34.9911
rtoes 7.30361
lfemur -16.3918 8.20369 -17.1011
ltibia 28.3449
lfoot -18.8249 17.6622
ltoes -25.15
551
root 7.82502 15.6809 39.2122 113.657 -83.141 -101.246
lowerback -11.428 1.89555 5.31805
upperback -8.75693 1.6052 1.26505
thorax -2.66642 0.393772 -1.5086
lowerneck 18.9404 -8.02505 -32.434
upperneck -4.39141 -18.8328 39.969
head 3.30696 -11.8473 20.544
rclavicle -6.70898e-015 3.97569e-015
rhumerus -38.337 -2.57212 -82.5807
rradius 24.3927
rwrist 28.7594
rhand -14.0308 -0.170163
rfingers 7.12502
rthumb 12.0994 -29.8003
lclavicle -6.70898e-015 3.97569e-015
lhumerus -51.4173 -33.7569 116.838
lradius 37.9923
lwrist 26.751
lhand -7.57117 -13.4444
lfingers 7.12502
lthumb 18.3214 15.7128
rfemur -26.4326 -10.0319 26.7867
rtibia 29.3046
rfoot -13.8813 34.927
rtoes 7.20574
lfemur -16.3397 8.20379 -17.1816
ltibia 28.3002
lfoot -18.8176 17.7102
ltoes -25.0861
552
root 7.82563 15.6801 39.2174 114.377 -83.1711 -101.988
lowerback -11.4021 1.91265 5.307
upperback -8.76301 1.63047 1.26853
thorax -2.68556 0.406333 -1.49699
lowerneck 18.9191 -8.02296 -32.4196
upperneck -4.40639 -18.8134 39.9621
head 3.29569 -11.8343 20.5384
rclavicle 1.49089e-015 2.32578e-014
rhumerus -38.0664 -2.31269 -82.5625
rradius 24.4405
rwrist 28.237
rhand -14.1995 -0.218951
rfingers 7.12502
rthumb 11.9368 -29.8586
lclavicle 1.49089e-015 2.32578e-014
lhumerus -50.7314 -32.7874 115.896
lradius 37.3479
lwrist 26.4282
lhand -8.1912 -13.8114
lfingers 7.12502
lthumb 17.7249 15.4008
rfemur -26.4312 -9.88379 26.6853
rtibia 29.3523
rfoot -13.9454 34.8341
rtoes 7.08379
lfemur -16.2768 8.1998 -17.2601
ltibia 28.2508
lfoot -18.7958 17.7735
ltoes -25.0861
